HIERARCHY
ROOT Hips
{
	OFFSET 0.000000 0.000000 0.000000
	CHANNELS 6 Xposition Yposition Zposition Zrotation Yrotation Xrotation 
	JOINT LHipJoint
	{
		OFFSET 0.000000 0.000000 0.000000
		CHANNELS 3 Zrotation Yrotation Xrotation
		JOINT LeftUpLeg
		{
			OFFSET 1.363060 -1.794630 0.839290
			CHANNELS 3 Zrotation Yrotation Xrotation
			JOINT LeftLeg
			{
				OFFSET 2.448110 -6.726130 0.000000
				CHANNELS 3 Zrotation Yrotation Xrotation
				JOINT LeftFoot
				{
					OFFSET 2.562200 -7.039590 0.000000
					CHANNELS 3 Zrotation Yrotation Xrotation
					JOINT LeftToeBase
					{
						OFFSET 0.157640 -0.433110 2.322550
						CHANNELS 3 Zrotation Yrotation Xrotation
						End Site
						{
							OFFSET 0.000000 0.000000 0.000000
						}
					}
				}
			}
		}
	}
	JOINT RHipJoint
	{
		OFFSET 0.000000 0.000000 0.000000
		CHANNELS 3 Zrotation Yrotation Xrotation
		JOINT RightUpLeg
		{
			OFFSET -1.305520 -1.794630 0.839290
			CHANNELS 3 Zrotation Yrotation Xrotation
			JOINT RightLeg
			{
				OFFSET -2.542530 -6.985550 0.000000
				CHANNELS 3 Zrotation Yrotation Xrotation
				JOINT RightFoot
				{
					OFFSET -2.568260 -7.056230 0.000000
					CHANNELS 3 Zrotation Yrotation Xrotation
					JOINT RightToeBase
					{
						OFFSET -0.164730 -0.452590 2.363150
						CHANNELS 3 Zrotation Yrotation Xrotation
						End Site
						{
							OFFSET 0.000000 0.000000 0.000000
						}
					}
				}
			}
		}
	}
}
MOTION
Frames: 33
Frame Time: 0.008333
-2.934830 16.418541 -0.630016 8.694809 68.073338 35.904115 -7.527074 -1.786429 -0.758763 -5.113158 -4.601354 -52.214454 -2.063307 1.260884 27.634713 0.270637 0.675972 2.307172 0.391000 -0.000000 -43.158100 11.355714 1.259088 -1.108142 -1.708466 11.893114 -31.493986 0.487843 -3.580962 53.399716 -0.581273 1.071596 -19.116434 0.072699 0.000000 -52.937500
-2.829994 16.362069 -0.618788 9.542615 67.517362 36.431549 -7.434407 -1.730089 -1.096730 -6.221698 -4.156670 -52.628378 -2.066565 1.489273 30.251822 0.335543 0.958085 1.178969 0.400300 0.000000 -42.226400 11.624030 1.308413 -1.189389 -2.268626 11.651764 -32.121668 0.226322 -3.818305 55.909330 -0.589338 0.643810 -18.396100 0.101799 0.000000 -54.026300
-2.727355 16.315054 -0.608903 10.260341 66.992160 36.800454 -7.345470 -1.678574 -1.429730 -7.226985 -3.755037 -52.801387 -2.078756 1.679875 32.539231 0.401858 1.220873 -0.188174 0.386500 -0.000001 -41.419300 11.869040 1.355100 -1.290745 -2.726825 11.416320 -32.629328 -0.044205 -4.034221 58.207134 -0.618428 0.085538 -17.457675 0.142400 0.000000 -54.912300
-2.625944 16.278189 -0.600642 10.822737 66.490920 36.983442 -7.266483 -1.633583 -1.754469 -8.109441 -3.381538 -52.732462 -2.100064 1.833322 34.483468 0.467884 1.451641 -1.705155 0.347900 0.000001 -40.822600 12.085932 1.397504 -1.409432 -3.067118 11.197622 -33.009029 -0.316608 -4.227160 60.287824 -0.676151 -0.623415 -16.361058 0.189900 0.000000 -55.368499
-2.524785 16.251480 -0.594327 11.205273 66.010117 36.961813 -7.203720 -1.597183 -2.064800 -8.849713 -3.025206 -52.445098 -2.126983 1.952427 36.096985 0.533063 1.651469 -3.274017 0.288400 -0.000000 -40.472600 12.270278 1.433714 -1.540486 -3.273502 11.000505 -33.269769 -0.583792 -4.395838 62.152991 -0.768568 -1.501689 -15.165824 0.236200 0.000000 -55.315300
-2.422960 16.234669 -0.589803 11.407208 65.545118 36.737841 -7.161180 -1.569534 -2.354038 -9.441437 -2.681564 -51.960482 -2.154764 2.039632 37.393330 0.598040 1.838136 -4.795225 0.215900 0.000000 -40.378500 12.420964 1.461795 -1.678225 -3.341580 10.823725 -33.421687 -0.838160 -4.540634 63.812027 -0.899208 -2.558780 -13.950527 0.272001 0.000000 -54.509100
-2.319840 16.227126 -0.586761 11.436897 65.091663 36.329548 -7.140311 -1.550221 -2.617408 -9.886029 -2.350973 -51.310334 -2.177735 2.098537 38.398363 0.663997 2.037925 -6.181491 0.138800 -0.000000 -40.518400 12.538607 1.482002 -1.819058 -3.273537 10.659876 -33.485283 -1.073461 -4.662783 65.276676 -1.068770 -3.795578 -12.786499 0.288500 -0.000000 -52.899800
-2.214937 16.228016 -0.584552 11.322979 64.647488 35.774116 -7.140996 -1.536555 -2.848055 -10.197927 -2.038648 -50.529413 -2.190958 2.132575 39.141207 0.732116 2.278597 -7.365082 0.063600 -0.000000 -40.846400 12.626185 1.493819 -1.957016 -3.081967 10.495507 -33.485897 -1.284309 -4.764438 66.561288 -1.274632 -5.197306 -11.749831 0.281300 0.000000 -50.399300
-2.108070 16.236352 -0.582370 11.102234 64.211352 35.119115 -7.161194 -1.524878 -3.040989 -10.400407 -1.751105 -49.654820 -2.191140 2.145421 39.653950 0.803486 2.583453 -8.305014 -0.005000 0.000000 -41.297200 12.687803 1.497899 -2.087648 -2.786220 10.313591 -33.452888 -1.466611 -4.848324 67.680254 -1.510913 -6.731952 -10.913150 0.254000 -0.000001 -46.952200
-1.999378 16.251192 -0.579303 10.816045 63.782519 34.418202 -7.197287 -1.511027 -3.193764 -10.522756 -1.493203 -48.723486 -2.177493 2.140813 39.968666 0.878787 2.965645 -8.989190 -0.064100 0.000000 -41.794800 12.728055 1.495978 -2.207796 -2.410497 10.097834 -33.416594 -1.618052 -4.917017 68.644138 -1.769143 -8.352064 -10.331695 0.219000 -0.000000 -42.623000
-1.889201 16.271620 -0.574510 10.506231 63.361394 33.723056 -7.245094 -1.490650 -3.305095 -10.597027 -1.267390 -47.768257 -2.151810 2.121934 40.113172 0.958107 3.425626 -9.431760 -0.111800 -0.000000 -42.263200 12.751428 1.489731 -2.314170 -1.981936 9.834772 -33.404917 -1.737772 -4.972620 69.458961 -2.038926 -9.996890 -10.038319 0.196000 0.000000 -37.573600
-1.778130 16.296898 -0.567209 10.207498 62.948632 33.078484 -7.299804 -1.460307 -3.376889 -10.653045 -1.071661 -46.816935 -2.118172 2.091577 40.110956 1.040752 3.950819 -9.668705 -0.147000 0.000000 -42.636600 12.761803 1.481559 -2.404830 -1.526117 9.517224 -33.441228 -1.826640 -5.016253 70.124106 -2.309081 -11.599964 -10.023408 0.204001 -0.000000 -32.180600
-1.666862 16.326409 -0.556865 9.943960 62.545183 32.515952 -7.356943 -1.417769 -3.413051 -10.715143 -0.899803 -45.889921 -2.082074 2.051915 39.979854 1.125173 4.518052 -9.749773 -0.169600 0.000000 -42.869700 12.762119 1.473650 -2.478272 -1.064678 9.145485 -33.541963 -1.886698 -5.048203 70.635586 -2.568071 -13.093857 -10.237863 0.254200 0.000000 -26.947700
-1.556208 16.359630 -0.543178 9.728947 62.149575 32.053927 -7.412461 -1.361861 -3.420289 -10.800341 -0.741857 -44.999962 -2.049764 2.005096 39.733023 1.209073 5.097779 -9.730302 -0.181100 -0.000000 -42.941800 12.754393 1.468985 -2.535669 -0.613276 8.724699 -33.716423 -1.919728 -5.068692 70.992739 -2.803952 -14.410730 -10.630442 0.350600 -0.000001 -22.192100
-1.446912 16.396163 -0.526121 9.564531 61.761156 31.694168 -7.463691 -1.293058 -3.405528 -10.917324 -0.585657 -44.150343 -2.026702 1.952249 39.378909 1.289501 5.658181 -9.661506 -0.184600 0.000000 -42.858899 12.739928 1.468361 -2.578109 -0.180274 8.263208 -33.964787 -1.927584 -5.078037 71.193696 -3.005711 -15.492498 -11.133305 0.485100 0.000000 -18.228800
-1.339651 16.435736 -0.505840 9.446805 61.383751 31.423047 -7.509600 -1.213925 -3.373695 -11.066923 -0.418557 -43.333420 -2.016150 1.892605 38.924160 1.362998 6.168888 -9.583320 -0.184000 0.000000 -42.651200 12.720246 1.467408 -2.604683 0.232661 7.768681 -34.278865 -1.910766 -5.078090 71.237838 -3.163981 -16.292480 -11.697053 0.645000 0.000001 -15.094000
-1.234913 16.478055 -0.482763 9.361329 61.012442 31.218612 -7.550366 -1.126661 -3.332413 -11.242787 -0.226862 -42.538961 -2.020440 1.827020 38.373365 1.426366 6.606061 -9.519295 -0.182500 -0.000000 -42.366800 12.694898 1.465685 -2.618618 0.628369 7.251876 -34.645428 -1.870055 -5.069413 71.124690 -3.272204 -16.781833 -12.277175 0.813200 -0.000000 -12.740099
-1.133048 16.522917 -0.457406 9.288541 60.640653 31.051753 -7.587674 -1.034037 -3.288701 -11.432808 0.002886 -41.754092 -2.039828 1.756436 37.731548 1.476857 6.954140 -9.474354 -0.181700 -0.000000 -42.065200 12.662690 1.462239 -2.622781 1.012584 6.725420 -35.046197 -1.806517 -5.052146 70.851979 -3.327536 -16.954332 -12.829493 0.969000 -0.000000 -11.096900
-1.034232 16.570012 -0.430343 9.203222 60.256184 30.894627 -7.622530 -0.938588 -3.253257 -11.621402 0.282367 -40.969446 -2.073448 1.683754 37.007414 1.512587 7.206911 -9.437597 -0.181000 0.000001 -41.808600 12.622393 1.461188 -2.624664 1.391743 6.203398 -35.462798 -1.722234 -5.025860 70.420455 -3.331080 -16.826922 -13.313085 1.093400 0.000000 -10.105301
-0.938410 16.619153 -0.402123 9.086625 59.853302 30.717089 -7.658769 -0.843548 -3.229147 -11.791127 0.619130 -40.173854 -2.117508 1.609829 36.211191 1.532331 7.366717 -9.382666 -0.176900 -0.000000 -41.655900 12.572514 1.459791 -2.624399 1.773734 5.698246 -35.874163 -1.619424 -4.990240 69.827709 -3.287958 -16.438500 -13.691120 1.171500 0.000001 -9.724400
-0.845362 16.669985 -0.373183 8.923240 59.427939 30.495040 -7.699246 -0.751948 -3.219035 -11.926529 1.015847 -39.361624 -2.167048 1.536131 35.359707 1.535930 7.443635 -9.277138 -0.164700 -0.000000 -41.654500 12.512663 1.456336 -2.622536 2.164359 5.220067 -36.262481 -1.501040 -4.945424 69.076082 -3.206894 -15.846169 -13.939220 1.197300 -0.000000 -9.916100
-0.754794 16.722120 -0.343815 8.704772 58.975434 30.214877 -7.746632 -0.665671 -3.223748 -12.015154 1.470461 -38.533075 -2.216902 1.464753 34.472938 1.524336 7.453628 -9.087911 -0.139700 -0.000000 -41.834999 12.442462 1.450491 -2.619148 2.566795 4.776565 -36.615297 -1.370567 -4.891183 68.171260 -3.099468 -15.119288 -14.048761 1.173700 0.000000 -10.629900
-0.666226 16.775193 -0.314057 8.431040 58.492386 29.873809 -7.803545 -0.585143 -3.241256 -12.049373 1.975606 -37.693028 -2.262244 1.397920 33.572069 1.499578 7.416181 -8.787113 -0.097900 0.000000 -42.207400 12.361334 1.442321 -2.613003 2.981680 4.372345 -36.924795 -1.231583 -4.826938 67.121434 -2.978982 -14.332567 -14.028240 1.111400 -0.000000 -11.787000
-0.579336 16.828679 -0.283816 8.110142 57.980610 29.478268 -7.870189 -0.510655 -3.269046 -12.027761 2.519386 -36.850847 -2.298992 1.337475 32.681956 1.464325 7.349912 -8.358920 -0.037700 -0.000000 -42.758800 12.270531 1.431946 -2.602948 3.406677 4.007019 -37.190251 -1.087184 -4.753437 65.940427 -2.858793 -13.557267 -13.904614 1.025700 0.000000 -13.268800
-0.493725 16.882113 -0.252838 7.755740 57.443131 29.043000 -7.945985 -0.441308 -3.303288 -11.954373 3.087134 -36.017210 -2.324615 1.284849 31.824796 1.421674 7.270734 -7.800842 0.040200 0.000000 -43.456600 12.171350 1.419950 -2.587539 3.837150 3.677013 -37.415329 -0.939848 -4.671402 64.644454 -2.751094 -12.855233 -13.717715 0.932500 -0.000000 -14.917800
-0.409159 16.934960 -0.220743 7.385452 56.885119 28.587298 -8.028955 -0.375851 -3.340043 -11.838056 3.663085 -35.203640 -2.338199 1.240763 31.019692 1.374760 7.190132 -7.124295 0.133199 -0.000000 -44.255600 12.065641 1.407171 -2.565450 4.266614 3.376191 -37.608094 -0.791202 -4.581939 63.251439 -2.665440 -12.271927 -13.513956 0.845400 -0.000000 -16.549000
-0.325404 16.986768 -0.187158 7.016267 56.312715 28.131786 -8.116385 -0.312822 -3.375973 -11.690223 4.232530 -34.419927 -2.340492 1.205223 30.280143 1.326322 7.113980 -6.353156 0.237100 -0.000000 -45.106301 11.955300 1.394794 -2.536054 4.688556 3.097348 -37.779037 -0.642196 -4.486175 61.780284 -2.608056 -11.833753 -13.338162 0.773900 0.000000 -17.975400
-0.242411 17.037120 -0.151701 6.665391 55.732497 27.695552 -8.205188 -0.250691 -3.407871 -11.524438 4.782324 -33.672815 -2.333349 1.177310 29.613348 1.278579 7.044242 -5.518977 0.346699 0.000000 -45.963600 11.842401 1.383577 -2.498250 5.095454 2.833301 -37.939649 -0.493220 -4.385300 60.249073 -2.581187 -11.545430 -13.226052 0.723700 0.000000 -19.033700
-0.160096 17.085693 -0.114083 6.343331 55.148195 27.293689 -8.292511 -0.188369 -3.434288 -11.352352 5.303107 -32.966268 -2.319588 1.155836 29.019097 1.233188 6.980209 -4.657643 0.456700 -0.000000 -46.794401 11.728354 1.375028 -2.452282 5.482100 2.579433 -38.100795 -0.344729 -4.279840 58.672726 -2.583526 -11.394020 -13.193700 0.695300 0.000000 -19.645299
-0.078464 17.132202 -0.074159 6.057748 54.563017 26.935570 -8.375916 -0.125047 -3.454031 -11.184440 5.788343 -32.299550 -2.302029 1.138968 28.491549 1.191237 6.920553 -3.803868 0.562501 0.000000 -47.580000 11.614707 1.369599 -2.397720 5.843626 2.332483 -38.272150 -0.196949 -4.170566 57.065474 -2.610313 -11.349865 -13.243478 0.687100 -0.000000 -19.772900
0.002431 17.176434 -0.031849 5.810596 53.977261 26.625393 -8.453640 -0.060459 -3.467401 -11.027954 6.235408 -31.668836 -2.283315 1.124974 28.020447 1.153377 6.864598 -2.987130 0.660300 0.000000 -48.317000 11.502575 1.367622 -2.334719 6.177757 2.092742 -38.461092 -0.050310 -4.057955 55.438169 -2.654062 -11.372869 -13.358516 0.693700 -0.000000 -19.470400
0.082514 17.218249 0.012755 5.599784 53.389909 26.360791 -8.524794 0.005277 -3.475266 -10.887160 6.645665 -31.067736 -2.265404 1.112160 27.593662 1.120011 6.813517 -2.229652 0.748000 0.000000 -49.014400 11.392921 1.368381 -2.263000 6.483989 1.862623 -38.672552 0.094696 -3.942694 53.800757 -2.705578 -11.418565 -13.510132 0.707800 0.000000 -18.853000
0.161650 17.257504 0.059519 5.419606 52.797757 26.136109 -8.589153 0.071572 -3.479583 -10.762836 7.023555 -30.488292 -2.249577 1.099256 27.197908 1.091317 6.770003 -1.543452 0.825200 0.000000 -49.689000 11.286402 1.370915 -2.182645 6.763854 1.647747 -38.909108 0.237479 -3.825469 52.161456 -2.755031 -11.443985 -13.662341 0.720300 0.000000 -18.086399
